<svg width="800" height="800" viewBox="0 0 800 800" fill="none" xmlns="http://www.w3.org/2000/svg">
<path d="M100 350H50C35 350 25 340 25 325C25 310 35 300 50 300H100C115 300 125 310 125 325C125 340 115 350 100 350Z" fill="#007CC4" stroke="#007CC4" stroke-width="25"/>
<path d="M485 190C477.5 190 472.5 187.5 467.5 182.5C457.5 172.5 457.5 157.5 467.5 147.5L502.5 112.5C512.5 102.5 527.5 102.5 537.5 112.5C547.5 122.5 547.5 137.5 537.5 147.5L502.5 182.5C497.5 187.5 490 190 485 190Z" fill="#007CC4" stroke="#007CC4" stroke-width="25"/>
<path d="M325 125C310 125 300 115 300 100V50C300 35 310 25 325 25C340 25 350 35 350 50V100C350 115 340 125 325 125Z" fill="#007CC4" stroke="#007CC4" stroke-width="25"/>
<path d="M165 190C157.5 190 152.5 187.5 147.5 182.5L112.5 147.5C102.5 137.5 102.5 122.5 112.5 112.5C122.5 102.5 137.5 102.5 147.5 112.5L182.5 147.5C192.5 157.5 192.5 172.5 182.5 182.5C177.5 187.5 172.5 190 165 190Z" fill="#007CC4" stroke="#007CC4" stroke-width="25"/>
<path d="M527.5 750H320C240 750 175 685 175 602.5C175 522.5 237.5 457.5 317.5 455C347.5 362.5 430 300 527.5 300C650 300 750 400 750 525C750 650 650 750 527.5 750Z" fill="#007CC4" stroke="#007CC4" stroke-width="25"/>
<path d="M282.5 410C320 327.5 397.5 267.5 485 255C457.5 192.5 395 150 325 150C227.5 150 150 227.5 150 325C150 372.5 170 415 200 447.5C225 430 252.5 415 282.5 410Z" fill="#007CC4" stroke="#007CC4" stroke-width="25"/>
</svg>
