<svg width="80" height="52" viewBox="0 0 80 52" fill="none" xmlns="http://www.w3.org/2000/svg">
<mask id="path-1-inside-1_15_728" fill="white">
<path d="M1.33081 22.3793H65.5387C73.5254 22.3793 79.9999 28.8538 79.9999 36.8406C79.9999 44.8273 73.5254 51.3018 65.5387 51.3018H30.2533C14.2798 51.3018 1.33081 38.3528 1.33081 22.3793Z"/>
</mask>
<path d="M1.33081 22.3793H79.9999H1.33081ZM86.9999 40.3406C86.9999 50.2603 78.9584 58.3018 69.0387 58.3018H37.2533C17.4139 58.3018 1.33081 42.2188 1.33081 22.3793V22.3793C1.33081 34.4868 14.2799 44.3018 30.2533 44.3018H65.5387C69.6594 44.3018 72.9999 40.9613 72.9999 36.8406L86.9999 40.3406ZM1.33081 51.3018V22.3793V51.3018ZM69.0387 22.3793C78.9584 22.3793 86.9999 30.4208 86.9999 40.3406C86.9999 50.2603 78.9584 58.3018 69.0387 58.3018L65.5387 44.3018C69.6594 44.3018 72.9999 40.9613 72.9999 36.8406V36.8406C72.9999 28.8538 69.6594 22.3793 65.5387 22.3793H69.0387Z" fill="#99D6F5" mask="url(#path-1-inside-1_15_728)"/>
<path d="M52.2824 16.8677C49.6346 23.0844 49.0589 7.42744 35.0138 6.85188C24.65 6.85188 19.8174 17.6735 19.8174 17.6735C21.6594 4.66439 32.481 -0.631262 39.849 0.0594426C50.2128 0.0594426 63.5646 13.0686 52.2824 16.8677Z" fill="#25A1DB"/>
<path d="M50.7555 16.5058C48.7745 21.5991 57.9553 12.8652 66.4072 20.4691C72.4038 26.3258 69.0847 35.3182 69.0847 35.3182C75.3704 26.7501 72.1014 17.5706 67.448 13.8066C61.4514 7.94995 46.3744 7.93198 50.7555 16.5058Z" fill="#25A1DB"/>
<path d="M8.11271 24.079C3.63212 28.3768 3.52292 35.5338 7.86883 40.0644C19.3224 48.7131 6.20122 39.3692 8.52234 33.9411C13.9986 21.1344 26.206 34.0607 23.0459 22.6976C22.598 20.7891 14.2223 18.6458 8.11271 24.079Z" fill="#035483"/>
<path d="M21.4785 26.3114C23.8159 31.7993 24.3241 17.9778 36.7227 17.4697C45.8716 17.4697 50.1377 27.0227 50.1377 27.0227C48.5116 15.5386 38.9586 10.8638 32.4543 11.4735C23.3055 11.4735 11.5189 22.9576 21.4785 26.3114Z" fill="#035483"/>
</svg>
