<svg width="318" height="59" viewBox="0 0 318 59" fill="none" xmlns="http://www.w3.org/2000/svg">
<mask id="path-1-inside-1_15_727" fill="white">
<path d="M1.33081 22.3793H65.5387C73.5254 22.3793 79.9999 28.8538 79.9999 36.8406C79.9999 44.8273 73.5254 51.3018 65.5387 51.3018H30.2533C14.2798 51.3018 1.33081 38.3528 1.33081 22.3793Z"/>
</mask>
<path d="M1.33081 22.3793H79.9999H1.33081ZM86.9999 40.3406C86.9999 50.2603 78.9584 58.3018 69.0387 58.3018H37.2533C17.4139 58.3018 1.33081 42.2188 1.33081 22.3793V22.3793C1.33081 34.4868 14.2799 44.3018 30.2533 44.3018H65.5387C69.6594 44.3018 72.9999 40.9613 72.9999 36.8406L86.9999 40.3406ZM1.33081 51.3018V22.3793V51.3018ZM69.0387 22.3793C78.9584 22.3793 86.9999 30.4208 86.9999 40.3406C86.9999 50.2603 78.9584 58.3018 69.0387 58.3018L65.5387 44.3018C69.6594 44.3018 72.9999 40.9613 72.9999 36.8406V36.8406C72.9999 28.8538 69.6594 22.3793 65.5387 22.3793H69.0387Z" fill="#99D6F5" mask="url(#path-1-inside-1_15_727)"/>
<path d="M52.2824 16.8677C49.6346 23.0844 49.0589 7.42744 35.0138 6.85188C24.65 6.85188 19.8174 17.6735 19.8174 17.6735C21.6594 4.66439 32.481 -0.631262 39.849 0.0594426C50.2128 0.0594426 63.5646 13.0686 52.2824 16.8677Z" fill="#25A1DB"/>
<path d="M50.7555 16.5058C48.7745 21.5991 57.9553 12.8652 66.4072 20.4691C72.4038 26.3258 69.0847 35.3182 69.0847 35.3182C75.3704 26.7501 72.1014 17.5706 67.448 13.8066C61.4514 7.94995 46.3744 7.93198 50.7555 16.5058Z" fill="#25A1DB"/>
<path d="M8.11271 24.079C3.63212 28.3768 3.52292 35.5338 7.86883 40.0644C19.3224 48.7131 6.20122 39.3692 8.52234 33.9411C13.9986 21.1344 26.206 34.0607 23.0459 22.6976C22.598 20.7891 14.2223 18.6458 8.11271 24.079Z" fill="#035483"/>
<path d="M21.4785 26.3114C23.8159 31.7993 24.3241 17.9778 36.7227 17.4697C45.8716 17.4697 50.1377 27.0227 50.1377 27.0227C48.5116 15.5386 38.9586 10.8638 32.4543 11.4735C23.3055 11.4735 11.5189 22.9576 21.4785 26.3114Z" fill="#035483"/>
<path d="M122.896 17.536L117.04 40H110.416L106.832 25.216L103.12 40H96.496L90.8 17.536H96.656L99.888 33.888L103.888 17.536H109.904L113.744 33.888L117.008 17.536H122.896ZM265.958 17.536L260.103 40H253.479L249.895 25.216L246.183 40H239.559L233.863 17.536H239.719L242.951 33.888L246.951 17.536H252.967L256.807 33.888L260.071 17.536H265.958Z" fill="#035483"/>
<path d="M142.472 30.784C142.472 31.296 142.44 31.8293 142.376 32.384H129.992C130.078 33.4933 130.43 34.3467 131.048 34.944C131.688 35.52 132.467 35.808 133.384 35.808C134.75 35.808 135.699 35.232 136.232 34.08H142.056C141.758 35.2533 141.214 36.3093 140.424 37.248C139.656 38.1867 138.686 38.9227 137.512 39.456C136.339 39.9893 135.027 40.256 133.576 40.256C131.827 40.256 130.27 39.8827 128.904 39.136C127.539 38.3893 126.472 37.3227 125.704 35.936C124.936 34.5493 124.552 32.928 124.552 31.072C124.552 29.216 124.926 27.5947 125.672 26.208C126.44 24.8213 127.507 23.7547 128.872 23.008C130.238 22.2613 131.806 21.888 133.576 21.888C135.304 21.888 136.84 22.2507 138.184 22.976C139.528 23.7013 140.574 24.736 141.32 26.08C142.088 27.424 142.472 28.992 142.472 30.784ZM136.872 29.344C136.872 28.4053 136.552 27.6587 135.912 27.104C135.272 26.5493 134.472 26.272 133.512 26.272C132.595 26.272 131.816 26.5387 131.176 27.072C130.558 27.6053 130.174 28.3627 130.024 29.344H136.872ZM144.271 31.04C144.271 29.2053 144.612 27.5947 145.295 26.208C145.999 24.8213 146.948 23.7547 148.143 23.008C149.338 22.2613 150.671 21.888 152.143 21.888C153.402 21.888 154.5 22.144 155.439 22.656C156.399 23.168 157.135 23.84 157.647 24.672V22.144H163.119V40H157.647V37.472C157.114 38.304 156.367 38.976 155.407 39.488C154.468 40 153.37 40.256 152.111 40.256C150.66 40.256 149.338 39.8827 148.143 39.136C146.948 38.368 145.999 37.2907 145.295 35.904C144.612 34.496 144.271 32.8747 144.271 31.04ZM157.647 31.072C157.647 29.7067 157.263 28.6293 156.495 27.84C155.748 27.0507 154.831 26.656 153.743 26.656C152.655 26.656 151.727 27.0507 150.959 27.84C150.212 28.608 149.839 29.6747 149.839 31.04C149.839 32.4053 150.212 33.4933 150.959 34.304C151.727 35.0933 152.655 35.488 153.743 35.488C154.831 35.488 155.748 35.0933 156.495 34.304C157.263 33.5147 157.647 32.4373 157.647 31.072ZM177.03 35.36V40H174.246C172.262 40 170.715 39.52 169.606 38.56C168.496 37.5787 167.942 35.9893 167.942 33.792V26.688H165.766V22.144H167.942V17.792H173.414V22.144H176.998V26.688H173.414V33.856C173.414 34.3893 173.542 34.7733 173.798 35.008C174.054 35.2427 174.48 35.36 175.078 35.36H177.03ZM191.054 21.952C193.102 21.952 194.744 22.6347 195.982 24C197.219 25.344 197.838 27.2 197.838 29.568V40H192.398V30.304C192.398 29.1093 192.088 28.1813 191.47 27.52C190.851 26.8587 190.019 26.528 188.974 26.528C187.928 26.528 187.096 26.8587 186.478 27.52C185.859 28.1813 185.55 29.1093 185.55 30.304V40H180.078V16.32H185.55V24.544C186.104 23.7547 186.862 23.1253 187.822 22.656C188.782 22.1867 189.859 21.952 191.054 21.952ZM218.472 30.784C218.472 31.296 218.44 31.8293 218.376 32.384H205.992C206.078 33.4933 206.43 34.3467 207.048 34.944C207.688 35.52 208.467 35.808 209.384 35.808C210.75 35.808 211.699 35.232 212.232 34.08H218.056C217.758 35.2533 217.214 36.3093 216.424 37.248C215.656 38.1867 214.686 38.9227 213.512 39.456C212.339 39.9893 211.027 40.256 209.576 40.256C207.827 40.256 206.27 39.8827 204.904 39.136C203.539 38.3893 202.472 37.3227 201.704 35.936C200.936 34.5493 200.552 32.928 200.552 31.072C200.552 29.216 200.926 27.5947 201.672 26.208C202.44 24.8213 203.507 23.7547 204.872 23.008C206.238 22.2613 207.806 21.888 209.576 21.888C211.304 21.888 212.84 22.2507 214.184 22.976C215.528 23.7013 216.574 24.736 217.32 26.08C218.088 27.424 218.472 28.992 218.472 30.784ZM212.872 29.344C212.872 28.4053 212.552 27.6587 211.912 27.104C211.272 26.5493 210.472 26.272 209.512 26.272C208.595 26.272 207.816 26.5387 207.176 27.072C206.558 27.6053 206.174 28.3627 206.024 29.344H212.872ZM226.831 25.12C227.471 24.1387 228.271 23.3707 229.231 22.816C230.191 22.24 231.258 21.952 232.431 21.952V27.744H230.927C229.562 27.744 228.538 28.0427 227.855 28.64C227.172 29.216 226.831 30.24 226.831 31.712V40H221.359V22.144H226.831V25.12ZM271.455 20.288C270.495 20.288 269.705 20.0107 269.087 19.456C268.489 18.88 268.191 18.176 268.191 17.344C268.191 16.4907 268.489 15.7867 269.087 15.232C269.705 14.656 270.495 14.368 271.455 14.368C272.393 14.368 273.161 14.656 273.759 15.232C274.377 15.7867 274.687 16.4907 274.687 17.344C274.687 18.176 274.377 18.88 273.759 19.456C273.161 20.0107 272.393 20.288 271.455 20.288ZM274.175 22.144V40H268.703V22.144H274.175ZM285.404 40.256C283.847 40.256 282.46 39.9893 281.244 39.456C280.028 38.9227 279.068 38.1973 278.364 37.28C277.66 36.3413 277.266 35.296 277.18 34.144H282.588C282.652 34.7627 282.94 35.264 283.452 35.648C283.964 36.032 284.594 36.224 285.34 36.224C286.023 36.224 286.546 36.096 286.908 35.84C287.292 35.5627 287.484 35.2107 287.484 34.784C287.484 34.272 287.218 33.8987 286.684 33.664C286.151 33.408 285.287 33.1307 284.092 32.832C282.812 32.5333 281.746 32.224 280.892 31.904C280.039 31.5627 279.303 31.04 278.684 30.336C278.066 29.6107 277.756 28.64 277.756 27.424C277.756 26.4 278.034 25.472 278.588 24.64C279.164 23.7867 279.996 23.1147 281.084 22.624C282.194 22.1333 283.506 21.888 285.02 21.888C287.26 21.888 289.02 22.4427 290.3 23.552C291.602 24.6613 292.348 26.1333 292.54 27.968H287.484C287.399 27.3493 287.122 26.8587 286.652 26.496C286.204 26.1333 285.607 25.952 284.86 25.952C284.22 25.952 283.73 26.08 283.388 26.336C283.047 26.5707 282.876 26.9013 282.876 27.328C282.876 27.84 283.143 28.224 283.676 28.48C284.231 28.736 285.084 28.992 286.236 29.248C287.559 29.5893 288.636 29.9307 289.468 30.272C290.3 30.592 291.026 31.1253 291.644 31.872C292.284 32.5973 292.615 33.5787 292.636 34.816C292.636 35.8613 292.338 36.8 291.74 37.632C291.164 38.4427 290.322 39.0827 289.212 39.552C288.124 40.0213 286.855 40.256 285.404 40.256ZM312.816 30.784C312.816 31.296 312.784 31.8293 312.72 32.384H300.336C300.421 33.4933 300.773 34.3467 301.392 34.944C302.032 35.52 302.811 35.808 303.728 35.808C305.093 35.808 306.043 35.232 306.576 34.08H312.4C312.101 35.2533 311.557 36.3093 310.768 37.248C310 38.1867 309.029 38.9227 307.856 39.456C306.683 39.9893 305.371 40.256 303.92 40.256C302.171 40.256 300.613 39.8827 299.248 39.136C297.883 38.3893 296.816 37.3227 296.048 35.936C295.28 34.5493 294.896 32.928 294.896 31.072C294.896 29.216 295.269 27.5947 296.016 26.208C296.784 24.8213 297.851 23.7547 299.216 23.008C300.581 22.2613 302.149 21.888 303.92 21.888C305.648 21.888 307.184 22.2507 308.528 22.976C309.872 23.7013 310.917 24.736 311.664 26.08C312.432 27.424 312.816 28.992 312.816 30.784ZM307.216 29.344C307.216 28.4053 306.896 27.6587 306.256 27.104C305.616 26.5493 304.816 26.272 303.856 26.272C302.939 26.272 302.16 26.5387 301.52 27.072C300.901 27.6053 300.517 28.3627 300.368 29.344H307.216Z" fill="#24A1DB"/>
</svg>
