<svg width="800" height="800" viewBox="0 0 800 800" fill="none" xmlns="http://www.w3.org/2000/svg">
<path d="M375 25C361.133 25 350 36.1328 350 50V126.562L287.305 90.8203C275.391 83.9844 260.156 88.086 253.32 100C246.484 112.109 250.586 127.344 262.5 134.18L350 184.18V356.641L200.586 270.312L200.977 169.727C200.977 156.055 189.844 144.727 176.172 144.727C162.305 144.727 151.172 155.859 151.172 169.531L150.781 241.602L84.375 203.32C78.7109 200 71.875 199.023 65.4297 200.781C58.9844 202.539 53.5156 206.836 50.1953 212.5C46.875 218.164 45.8984 225 47.6562 231.445C49.414 237.891 53.7109 243.359 59.375 246.68L125.781 284.961L63.4765 321.289C51.5625 328.125 47.4609 343.555 54.4922 355.469C61.3281 367.383 76.5625 371.484 88.6719 364.453L175.586 313.672L325 400L175.586 486.328L88.6719 435.547C76.5625 428.516 61.3281 432.617 54.4922 444.727C47.4609 456.641 51.5625 471.875 63.4765 478.711L125.781 515.039L59.375 553.32C53.7109 556.641 49.414 562.109 47.6562 568.555C45.8984 575 46.875 581.836 50.1953 587.5H50.3906C57.2265 599.414 72.4609 603.516 84.375 596.68L150.781 558.398L151.172 630.469C151.172 644.141 162.305 655.469 176.172 655.273C189.844 655.273 200.977 644.141 200.977 630.273L200.586 529.688L350 443.359V618.359L262.695 667.773C256.836 670.898 252.734 676.367 250.977 682.812C249.023 689.062 250 695.898 253.32 701.758C256.445 707.617 261.914 711.719 268.359 713.477C274.609 715.43 281.445 714.453 287.305 711.328L350 675.781V750C350 763.867 361.133 775 375 775C388.867 775 400 763.867 400 750V675.781L462.695 711.328C468.555 714.453 475.391 715.43 481.641 713.477C488.086 711.719 493.555 707.617 496.875 701.758C500 695.898 500.977 689.062 499.023 682.812C497.266 676.367 493.164 670.898 487.305 667.773L400 618.359V443.359L551.562 530.859L550.781 631.25C550.586 644.922 561.719 656.25 575.391 656.25C582.031 656.445 588.477 653.906 593.164 649.219C597.852 644.531 600.586 638.281 600.781 631.641L601.367 559.57L665.625 596.68C677.539 603.516 692.773 599.414 699.805 587.5C706.641 575.586 702.539 560.156 690.625 553.32L626.367 516.211L688.477 479.688C694.141 476.367 698.242 470.898 699.805 464.453C701.562 458.008 700.586 451.172 697.266 445.312C690.234 433.594 674.805 429.687 663.086 436.523L576.562 487.5L425 400L576.562 312.5L663.086 363.477C674.805 370.508 690.234 366.406 697.266 354.688C700.586 348.828 701.562 341.992 699.805 335.547C698.242 329.102 694.141 323.633 688.477 320.312L626.367 283.789L690.625 246.68C702.539 239.844 706.641 224.414 699.805 212.5C692.773 200.586 677.539 196.484 665.625 203.32L601.367 240.43L600.781 168.359C600.586 161.719 597.852 155.469 593.164 150.781C588.477 146.094 582.031 143.555 575.391 143.75C561.523 143.75 550.586 155.078 550.781 168.945L551.562 269.141L400 356.641V184.18L487.5 134.18C499.414 127.344 503.516 112.109 496.68 100C489.844 88.086 474.609 83.9844 462.695 90.8203L400 126.562V50C400 36.1328 388.867 25 375 25Z" fill="#007CC4"/>
</svg>
